<svg id="Layer_1" data-name="Layer 1" xmlns="http://www.w3.org/2000/svg" viewBox="0 0 959.89 580.66"><defs><style>.cls-1{fill:#232430;}.cls-2{fill:#a6d9c6;}.cls-3{fill:#fff;}.cls-4{fill:#00aeef;}.cls-5{fill:#2d303c;}.cls-6{fill:#383a47;}</style></defs><title>bike-blue</title><path class="cls-1" d="M676.93,61a11.66,11.66,0,0,1-15.36-11.71,106.93,106.93,0,0,0-.13-16.13c-1.42-2.3-3.9-5.68-5.29-7.49A11.66,11.66,0,1,1,674.64,11.5a114.88,114.88,0,0,1,7.61,11.1c1,1.84,3.81,6.75,2.59,28.06A11.65,11.65,0,0,1,676.93,61Z" transform="translate(-10.39 -6.94)"/><path class="cls-1" d="M470.55,315.15H432.66a9.47,9.47,0,0,0,0,18.94h12.39v90.63a6.56,6.56,0,1,0,13.11,0V334.09h12.39a9.47,9.47,0,0,0,0-18.94Z" transform="translate(-10.39 -6.94)"/><path class="cls-1" d="M202.42,203.54c-106,0-192,86-192,192s86,192,192,192,192-86,192-192S308.48,203.54,202.42,203.54Zm0,362.18A170.15,170.15,0,1,1,372.57,395.57,170.15,170.15,0,0,1,202.42,565.72Z" transform="translate(-10.39 -6.94)"/><path class="cls-2" d="M202.42,217.47a178.11,178.11,0,1,0,178.11,178.1A178.1,178.1,0,0,0,202.42,217.47Zm0,335.91A157.81,157.81,0,1,1,360.23,395.57,157.81,157.81,0,0,1,202.42,553.38Z" transform="translate(-10.39 -6.94)"/><path class="cls-3" d="M202.42,567.85c-95,0-172.27-77.28-172.27-172.28S107.43,223.3,202.42,223.3,374.7,300.58,374.7,395.57,297.42,567.85,202.42,567.85Zm0-335.91c-90.22,0-163.63,73.41-163.63,163.63S112.2,559.2,202.42,559.2s163.64-73.4,163.64-163.63S292.65,231.94,202.42,231.94Z" transform="translate(-10.39 -6.94)"/><path class="cls-3" d="M202.42,519.79a11.66,11.66,0,0,1,0-23.31,100.78,100.78,0,0,0,66.4-25A11.66,11.66,0,1,1,284.18,489,124,124,0,0,1,202.42,519.79Z" transform="translate(-10.39 -6.94)"/><circle class="cls-1" cx="192.03" cy="388.63" r="23.67"/><path class="cls-1" d="M778.24,203.54c-106.06,0-192,86-192,192s86,192,192,192,192-86,192-192S884.3,203.54,778.24,203.54Zm0,362.18A170.15,170.15,0,1,1,948.39,395.57,170.14,170.14,0,0,1,778.24,565.72Z" transform="translate(-10.39 -6.94)"/><path class="cls-2" d="M778.24,217.47a178.11,178.11,0,1,0,178.11,178.1A178.1,178.1,0,0,0,778.24,217.47Zm0,335.91A157.81,157.81,0,1,1,936,395.57,157.81,157.81,0,0,1,778.24,553.38Z" transform="translate(-10.39 -6.94)"/><path class="cls-3" d="M778.24,567.85c-95,0-172.27-77.28-172.27-172.28S683.25,223.3,778.24,223.3s172.28,77.28,172.28,172.27S873.24,567.85,778.24,567.85Zm0-335.91c-90.22,0-163.63,73.41-163.63,163.63S688,559.2,778.24,559.2s163.63-73.4,163.63-163.63S868.47,231.94,778.24,231.94Z" transform="translate(-10.39 -6.94)"/><path class="cls-3" d="M778.24,519.79a11.66,11.66,0,1,1,0-23.31,100.87,100.87,0,0,0,65.52-24.23A11.66,11.66,0,0,1,858.92,490,124.17,124.17,0,0,1,778.24,519.79Z" transform="translate(-10.39 -6.94)"/><circle class="cls-1" cx="767.85" cy="388.63" r="23.67"/><path class="cls-4" d="M784.36,388.34C715.63,330.25,660,161.84,659.44,160.15L630.27,70.62l44.17-7.21a9.47,9.47,0,1,0-3.06-18.69l-55.07,9A9.48,9.48,0,0,0,608.83,66l16.76,51.43L402.3,258.29,354.4,122.84a9.47,9.47,0,0,0-17.86,6.31l49.34,139.5L197.82,387.29a9.47,9.47,0,0,0,3.5,17.69L450,434.13c.32,0,.64.05.95.05h.24a9.81,9.81,0,0,0,1.32-.12l.28,0a9,9,0,0,0,1.36-.35l.12,0,.23-.1.46-.19.43-.2.39-.21.45-.28.32-.21.46-.34.27-.23c.15-.13.3-.26.44-.4l.14-.13,0-.05a9.38,9.38,0,0,0,1.38-1.82L647.23,182.8c16.26,45.32,64.66,169.1,124.9,220a9.47,9.47,0,0,0,12.23-14.47ZM392.59,287.64l44.53,125.9-204.44-24Zm61.86,118.08L409,277.19,630.36,136.06l9.1,24.67Z" transform="translate(-10.39 -6.94)"/><path class="cls-3" d="M434.43,420.92l-2.84-8L232.68,389.58h0a6.22,6.22,0,0,0,5.12,8.3Z" transform="translate(-10.39 -6.94)"/><path class="cls-3" d="M451.76,413.11,632.05,174.38a52.68,52.68,0,0,0,7.41-13.65h0l-185,245L409,277.19h0a21.87,21.87,0,0,0-.07,14.78Z" transform="translate(-10.39 -6.94)"/><path class="cls-3" d="M613.63,61.09l55.07-9a9.47,9.47,0,0,1,10.87,7.82,7,7,0,0,1,.09.77,9.46,9.46,0,0,0-8.28-16l-55.07,9A9.46,9.46,0,0,0,608.4,63.8,9.5,9.5,0,0,1,613.63,61.09Z" transform="translate(-10.39 -6.94)"/><path class="cls-3" d="M195.14,394.68,376.85,280a21.89,21.89,0,0,0,8.9-11l.13-.35L197.82,387.29a9.48,9.48,0,0,0-4.83,9A9.2,9.2,0,0,1,195.14,394.68Z" transform="translate(-10.39 -6.94)"/><path class="cls-3" d="M784.36,388.34C715.63,330.25,660,161.84,659.44,160.15L630.27,70.62h0A22.8,22.8,0,0,0,630,85.48l26.73,82.05c.55,1.69,56.2,170.11,124.92,228.19a9.46,9.46,0,0,1,3.33,6.47h0A9.47,9.47,0,0,0,784.36,388.34Z" transform="translate(-10.39 -6.94)"/><path class="cls-3" d="M339.63,124.45a9.48,9.48,0,0,1,12.09,5.77l47.9,135.45L616.26,129a23,23,0,0,0,9.33-11.58h0L402.3,258.29,354.4,122.84a9.46,9.46,0,0,0-18.36,3.9A9.3,9.3,0,0,1,339.63,124.45Z" transform="translate(-10.39 -6.94)"/><polygon class="cls-4" points="660.71 174.89 658.92 175.61 629.91 89.31 631.98 88.57 628.66 79.23 602.61 88.51 605.93 97.84 608.05 97.09 637.86 184.09 635.06 185.22 638.76 194.41 664.41 184.08 660.71 174.89"/><path class="cls-5" d="M451.12,391.52a33.2,33.2,0,1,0,33.19,33.2A33.23,33.23,0,0,0,451.12,391.52Z" transform="translate(-10.39 -6.94)"/><path class="cls-2" d="M451.25,384.24h0c-1.8-.08-71.74-4.59-133.44-8.57L260.32,372l-10.4,6.63,67.41,4.35c108.19,7,133.2,8.58,133.79,8.58a33.2,33.2,0,0,1,.09,66.39c-5.85-.52-128.51-21.67-194.51-33.05C203,415.6,203,415.6,202.42,415.6a20,20,0,0,1-.13-40.05c.42,0,5.12.31,12.86.81l10.51-6.63c-17.79-1.14-23-1.47-23.24-1.47a27.31,27.31,0,0,0-.27,54.62c2.51.4,25,4.28,53.31,9.16,124.73,21.51,192.85,33.16,195.66,33.16a40.48,40.48,0,0,0,.13-81Z" transform="translate(-10.39 -6.94)"/><path class="cls-1" d="M451.12,468.84a44.13,44.13,0,1,1,44.12-44.12A44.18,44.18,0,0,1,451.12,468.84Zm0-73.67a29.55,29.55,0,1,0,29.55,29.55A29.58,29.58,0,0,0,451.12,395.17Z" transform="translate(-10.39 -6.94)"/><path class="cls-6" d="M469.58,515.34H457.19V424.72a6.56,6.56,0,0,0-13.12,0v90.62H431.69a9.48,9.48,0,0,0,0,18.95h37.89a9.48,9.48,0,0,0,0-18.95Z" transform="translate(-10.39 -6.94)"/><circle class="cls-4" cx="664.35" cy="46.41" r="15.07"/><path class="cls-5" d="M674.69,63.61a11.67,11.67,0,0,1-10.81-16c2.35-5.86,4.57-12.65,5-15.33-.61-2.63-1.87-6.62-2.61-8.78a11.66,11.66,0,1,1,22.06-7.56,120.2,120.2,0,0,1,3.66,13c.4,2.08,1.45,7.62-6.51,27.42A11.67,11.67,0,0,1,674.69,63.61Z" transform="translate(-10.39 -6.94)"/><circle class="cls-3" cx="666.77" cy="11.6" r="6.88"/><path class="cls-1" d="M381,80.6c-18.25.73-68.72,4.46-89.05,0-6.25-1.38-41.93-5-23.45,15.63,0,0,16.34,14.21,36.24,14.92,1.72.06,3.67,0,5.8-.08,3.62,4.87,12,15.83,14.44,16.72,1,.36,4.8.19,9.64-.3l13.13,38.93,20.47-6.92-11.63-35.31c3.16-.67,5.47-1.33,6.15-1.88,2.07-1.65,4.44-13.73,5.61-20.4,7.44-1.57,13.27-2.91,16-3.55,11.2-2.69,21.31,1.42,23.44.71S404.81,79.63,381,80.6Zm-25.18,34.8a9.43,9.43,0,0,1-1.92.61l-1.54-4.65-21,6.34.53,1.59a14.41,14.41,0,0,1-2.55.14c-.59-.2-4.75-5.88-7.28-9.38,11.65-1.41,25.45-3.9,37.25-6.27C358.59,108.3,357.41,114.5,355.79,115.4Z" transform="translate(-10.39 -6.94)"/><path class="cls-1" d="M381,80.6c-18.25.73-68.72,4.46-89.05,0-6.25-1.38-41.93-5-23.45,15.63,0,0,16.34,14.21,36.24,14.92,1.72.06,3.67,0,5.8-.08,3.62,4.87,12,15.83,14.44,16.72,1,.36,4.8.19,9.64-.3l13.13,38.93,20.47-6.92-11.63-35.31c3.16-.67,5.47-1.33,6.15-1.88,2.07-1.65,4.44-13.73,5.61-20.4,7.44-1.57,13.27-2.91,16-3.55,11.2-2.69,21.31,1.42,23.44.71S404.81,79.63,381,80.6Zm-25.18,34.8a9.43,9.43,0,0,1-1.92.61l-1.54-4.65-21,6.34.53,1.59a14.41,14.41,0,0,1-2.55.14c-.59-.2-4.75-5.88-7.28-9.38,11.65-1.41,25.45-3.9,37.25-6.27C358.59,108.3,357.41,114.5,355.79,115.4Z" transform="translate(-10.39 -6.94)"/><path class="cls-3" d="M353.75,130.75l10,30.26,4.47-1.51-11.63-35.31a4.33,4.33,0,0,0-1.08.59A5.37,5.37,0,0,0,353.75,130.75Z" transform="translate(-10.39 -6.94)"/><path class="cls-3" d="M381,80.6c-18.25.73-68.72,4.46-89.05,0-4.8-1.06-27-3.43-28.61,4.87,6.89-3.28,21.22-1.66,25-.83,20.33,4.46,70.8.73,89.05,0C394.11,84,401.58,93,403.79,98.71a11.16,11.16,0,0,0,3.94.36C409.86,98.36,404.81,79.63,381,80.6Z" transform="translate(-10.39 -6.94)"/><path class="cls-3" d="M368.32,101.91c-.53.12-1.24,1.23-2,2.26a15.09,15.09,0,0,0-2.4,5.76,107,107,0,0,1-3.21,13.22,6.9,6.9,0,0,0,2-.84C364.47,120.91,367.05,108.65,368.32,101.91Z" transform="translate(-10.39 -6.94)"/></svg>