<svg id="Layer_1" data-name="Layer 1" xmlns="http://www.w3.org/2000/svg" viewBox="0 0 1080 720"><defs><style>.cls-1{font-size:40.27px;letter-spacing:0.03em;}.cls-1,.cls-2,.cls-3,.cls-8{fill:#515254;font-family:HelveticaNeue-CondensedBold, Helvetica Neue;}.cls-1,.cls-11,.cls-2,.cls-4,.cls-9{font-weight:700;}.cls-10,.cls-2,.cls-3{font-size:28.19px;}.cls-2{letter-spacing:0.05em;}.cls-4{letter-spacing:0.02em;}.cls-5{letter-spacing:-0.03em;}.cls-6{letter-spacing:-0.05em;}.cls-7,.cls-8{font-size:24.16px;}.cls-12,.cls-7{font-family:HelveticaNeue, Helvetica Neue;}.cls-9{letter-spacing:0.03em;}.cls-11{letter-spacing:0.02em;}.cls-12{font-size:23.35px;}.cls-13{letter-spacing:-0.03em;}.cls-14{fill:#fff;}.cls-15{fill:#818181;}</style></defs><title>bracket</title><text class="cls-1" transform="translate(60.71 216.26)">#4 SEED</text><text class="cls-1" transform="translate(315.83 353.51)">#1 SEED</text><text class="cls-1" transform="translate(315.83 411.82)">#2 SEED</text><text class="cls-1" transform="translate(60.71 287.77)">#5 SEED</text><text class="cls-2" transform="translate(850.25 441.56)">CHAMPIONS</text><text class="cls-3" transform="translate(89.07 613.32)"><tspan class="cls-4">PL<tspan class="cls-5" x="29.09" y="0">A</tspan><tspan class="cls-6" x="43.91" y="0">Y</tspan><tspan x="57.19" y="0">-IN</tspan></tspan><tspan class="cls-7"><tspan x="-2.33" y="28.99">12:30PM</tspan></tspan></text><text class="cls-3" transform="translate(89.07 115.94)"><tspan class="cls-4">PL<tspan class="cls-5" x="29.09" y="0">A</tspan><tspan class="cls-6" x="43.91" y="0">Y</tspan><tspan x="57.19" y="0">-IN</tspan></tspan><tspan class="cls-7"><tspan x="-2.33" y="28.99">11:30AM</tspan></tspan></text><text class="cls-3" transform="translate(313.62 160.94)"><tspan class="cls-4">SEMI-FINALS</tspan><tspan class="cls-7"><tspan x="34.96" y="28.99">3:30PM</tspan></tspan></text><text class="cls-8" transform="translate(567.62 396.35)"><tspan class="cls-9">CHAMPIONSHIP</tspan><tspan class="cls-10"><tspan class="cls-11" x="33.39" y="33.82"> </tspan><tspan class="cls-12" x="40.86" y="33.82">8:00PM</tspan></tspan></text><text class="cls-3" transform="translate(564.83 221.44)"><tspan class="cls-11">CONSOL<tspan class="cls-13" x="94.56" y="0">A</tspan><tspan x="109.39" y="0">TION</tspan></tspan><tspan class="cls-7"><tspan x="40.22" y="28.99">6:00PM</tspan></tspan></text><text class="cls-8" transform="translate(539.85 544.06)"><tspan class="cls-9">SKILLS COMPETITION</tspan><tspan class="cls-10"><tspan class="cls-11" x="61.47" y="33.82"> </tspan><tspan class="cls-7" x="68.94" y="33.82">5:30PM</tspan></tspan></text><text class="cls-3" transform="translate(313.62 577.91)"><tspan class="cls-4">SEMI-FINALS</tspan><tspan class="cls-7"><tspan x="34.96" y="28.99">1:30PM</tspan></tspan></text><g id="Shape_1_copy_7" data-name="Shape 1 copy 7"><rect class="cls-14" x="773.2" y="396.35" width="301.8" height="3.87"/><polygon class="cls-15" points="1075 396.35 773.2 396.35 773.2 400.22 1075 400.22 1075 396.35 1075 396.35"/></g><g id="Shape_1_copy_7-2" data-name="Shape 1 copy 7"><rect class="cls-14" x="517.92" y="313.09" width="255.28" height="3.87"/><polygon class="cls-15" points="773.2 313.09 517.92 313.09 517.92 316.95 773.2 316.95 773.2 313.09 773.2 313.09"/></g><g id="Shape_1_copy_7-3" data-name="Shape 1 copy 7"><rect class="cls-14" x="517.92" y="479.62" width="255.28" height="3.87"/><polygon class="cls-15" points="773.2 479.62 517.92 479.62 517.92 483.48 773.2 483.48 773.2 479.62 773.2 479.62"/></g><g id="Shape_1_copy_7-4" data-name="Shape 1 copy 7"><rect class="cls-14" x="769.34" y="313.09" width="3.87" height="170.4"/><polygon class="cls-15" points="773.2 313.09 769.34 313.09 769.34 483.48 773.2 483.48 773.2 313.09 773.2 313.09"/></g><g id="Shape_1_copy_7-5" data-name="Shape 1 copy 7"><rect class="cls-14" x="514.06" y="258.95" width="3.87" height="112.11"/><polygon class="cls-15" points="517.92 258.95 514.06 258.95 514.06 371.07 517.92 371.07 517.92 258.95 517.92 258.95"/></g><g id="Shape_1_copy_7-6" data-name="Shape 1 copy 7"><rect class="cls-14" x="262.94" y="367.22" width="254.98" height="3.87"/><polygon class="cls-15" points="517.92 367.22 262.94 367.22 262.94 371.08 517.92 371.08 517.92 367.22 517.92 367.22"/></g><g id="Shape_1_copy_7-7" data-name="Shape 1 copy 7"><rect class="cls-14" x="262.94" y="258.95" width="254.98" height="3.87"/><polygon class="cls-15" points="517.92 258.95 262.94 258.95 262.94 262.82 517.92 262.82 517.92 258.95 517.92 258.95"/></g><g id="Shape_1_copy_7-8" data-name="Shape 1 copy 7"><rect class="cls-14" x="514.06" y="425.48" width="3.87" height="112.11"/><polygon class="cls-15" points="517.92 425.48 514.06 425.48 514.06 537.6 517.92 537.6 517.92 425.48 517.92 425.48"/></g><g id="Shape_1_copy_7-9" data-name="Shape 1 copy 7"><rect class="cls-14" x="262.94" y="533.75" width="254.98" height="3.87"/><polygon class="cls-15" points="517.92 533.75 262.94 533.75 262.94 537.61 517.92 537.61 517.92 533.75 517.92 533.75"/></g><g id="Shape_1_copy_7-10" data-name="Shape 1 copy 7"><rect class="cls-14" x="262.94" y="425.48" width="254.98" height="3.87"/><polygon class="cls-15" points="517.92 425.48 262.94 425.48 262.94 429.35 517.92 429.35 517.92 425.48 517.92 425.48"/></g><g id="Shape_1_copy_7-11" data-name="Shape 1 copy 7"><rect class="cls-14" x="7.67" y="301.64" width="255.28" height="3.87"/><polygon class="cls-15" points="262.94 301.64 7.67 301.64 7.67 305.51 262.94 305.51 262.94 301.64 262.94 301.64"/></g><g id="Shape_1_copy_7-12" data-name="Shape 1 copy 7"><rect class="cls-14" x="7.67" y="230.13" width="255.28" height="3.87"/><polygon class="cls-15" points="262.94 230.13 7.67 230.13 7.67 234 262.94 234 262.94 230.13 262.94 230.13"/></g><g id="Shape_1_copy_7-13" data-name="Shape 1 copy 7"><rect class="cls-14" x="259.08" y="230.13" width="3.87" height="75.38"/><polygon class="cls-15" points="262.94 230.13 259.08 230.13 259.08 305.51 262.94 305.51 262.94 230.13 262.94 230.13"/></g><text class="cls-1" transform="translate(60.71 481.87)">#3 SEED</text><text class="cls-1" transform="translate(60.71 553.38)">#6 SEED</text><g id="Shape_1_copy_7-14" data-name="Shape 1 copy 7"><rect class="cls-14" x="7.67" y="569.5" width="255.28" height="3.87"/><polygon class="cls-15" points="262.94 569.5 7.67 569.5 7.67 573.37 262.94 573.37 262.94 569.5 262.94 569.5"/></g><g id="Shape_1_copy_7-15" data-name="Shape 1 copy 7"><rect class="cls-14" x="7.67" y="497.99" width="255.28" height="3.87"/><polygon class="cls-15" points="262.94 497.99 7.67 497.99 7.67 501.86 262.94 501.86 262.94 497.99 262.94 497.99"/></g><g id="Shape_1_copy_7-16" data-name="Shape 1 copy 7"><rect class="cls-14" x="259.08" y="497.99" width="3.87" height="75.38"/><polygon class="cls-15" points="262.94 497.99 259.08 497.99 259.08 573.37 262.94 573.37 262.94 497.99 262.94 497.99"/></g></svg>