<svg id="Layer_1" data-name="Layer 1" xmlns="http://www.w3.org/2000/svg" viewBox="0 0 183.6 176.47"><defs><style>.cls-1{fill:#fff;}</style></defs><title>logo-white</title><path class="cls-1" d="M39.28,143.1a1.88,1.88,0,0,0,.1-1.08,1.79,1.79,0,0,0-1.46-1.41,5.3,5.3,0,0,0-1.72.15l-2,.42c.26,1.23.53,2.46.8,3.69l1.94-.39a5.32,5.32,0,0,0,1.63-.55A1.81,1.81,0,0,0,39.28,143.1Z" transform="translate(-0.7 -0.76)"/><path class="cls-1" d="M107.88,135.78a5,5,0,0,0-2.44-.77,4.93,4.93,0,0,0-2.49.54,4.63,4.63,0,0,0-1.86,1.67,4.73,4.73,0,0,0-.72,2.41,4.5,4.5,0,0,0,1.31,3.38,4.69,4.69,0,0,0,3.3,1.5,4.93,4.93,0,0,0,2.49-.52c-.78-1.09-1.57-2.18-2.37-3.26l1.38.06c.64.87,1.27,1.75,1.9,2.62a4.66,4.66,0,0,0-.5-7.63Z" transform="translate(-0.7 -0.76)"/><path class="cls-1" d="M126.46,142.39c1.3.16,2.59.33,3.88.51-.45-1.42-.92-2.83-1.4-4.25C128.1,139.89,127.28,141.14,126.46,142.39Z" transform="translate(-0.7 -0.76)"/><path class="cls-1" d="M171.72,129.87c.95-4.75,1.58-9.7,3-14.19C177.57,107,184.3,98.6,184.3,89s-6.73-18-9.54-26.68c-2.92-9-2.52-19.72-8-27.19s-15.87-10.47-23.41-16S130,4.73,121,1.82c-8.66-2.81-18.73.88-28.32.88S73-1,64.33,1.82c-9,2.91-14.93,11.91-22.4,17.35S24,27.58,18.51,35.13s-5,18.22-8,27.19C7.74,71,1,79.4,1,89s6.73,18,9.54,26.68c1.45,4.44,2.08,9.32,3,14Q7.1,131.48.7,133.55q7.84,8.87,15.05,18.07-1.17,11.63-1.64,23.19a253.22,253.22,0,0,1,121.11-8.72c-4.74-.82-9.51-1.5-14.28-2a80.39,80.39,0,0,1-56.7-.05q-7.14.8-14.24,2c4.33,4.2,8.75,8.37,14.33,10.18,8.66,2.81,18.73-.88,28.33-.88s19.66,3.69,28.32.88c5.54-1.8,9.94-5.92,14.24-10.09a253.46,253.46,0,0,1,35.36,8.72q-.48-11.55-1.64-23.19,7.22-9.21,15.05-18.07Q177.89,131.57,171.72,129.87ZM12.47,89A80.19,80.19,0,1,1,163,127.58a296.56,296.56,0,0,0-140.69-.14A79.77,79.77,0,0,1,12.47,89Zm18.47,56.7A3.08,3.08,0,0,1,29.53,147a15.82,15.82,0,0,1-2.8.86l-.79.2,1.26,5-1.09.28q-1.38-5.38-2.77-10.76c.76-.2,1.51-.39,2.27-.57a13.65,13.65,0,0,1,2.67-.48,3,3,0,0,1,1.82.57,2.73,2.73,0,0,1,1,1.64A2.78,2.78,0,0,1,30.94,145.7Zm10,4.34q-2.49-2.14-5-4.24l-.63.14,1.08,5-1.1.23q-1.19-5.42-2.39-10.84l2.28-.49a13.7,13.7,0,0,1,2.63-.38,3,3,0,0,1,1.85.62,2.73,2.73,0,0,1,1,1.68,2.87,2.87,0,0,1-.14,1.65,2.64,2.64,0,0,1-1,1.26,6,6,0,0,1-2.14.8c1.69,1.41,3.37,2.83,5,4.26Zm3.58-.68q-1-5.46-2-10.92c2.2-.4,4.41-.78,6.62-1.12.06.35.12.71.17,1.07-1.82.29-3.63.59-5.45.91.21,1.14.42,2.28.62,3.43q2.66-.48,5.33-.89c.06.35.12.71.17,1.07-1.77.28-3.54.57-5.31.89.26,1.43.52,2.86.77,4.29,1.74-.3,3.48-.6,5.23-.87.05.36.11.72.17,1.07C48.68,148.63,46.57,149,44.47,149.36Zm19.27-2.78q-1-3.89-2-7.77-1.59,4.17-3.06,8.36l-.29,0q-2.51-3.72-5.13-7.38c0,2.69,0,5.39,0,8.08l-1.07.16q0-5.61,0-11.23l.19,0q3,4.16,5.89,8.39,1.68-4.8,3.52-9.59l.19,0q1.45,5.43,2.83,10.86Zm3.14-.32q-.52-5.52-1.07-11L67,135.1q.52,5.52,1,11.06Zm10.75-2.81a3.29,3.29,0,0,1-1.08,1.66,3.42,3.42,0,0,1-2.1.81,4.18,4.18,0,0,1-2.37-.47,3.17,3.17,0,0,1-1.44-1.59,9.31,9.31,0,0,1-.4-2.32c-.18-2.22-.37-4.45-.55-6.68l1.17-.09c.17,2.23.35,4.45.52,6.68a13.49,13.49,0,0,0,.17,1.48A2.56,2.56,0,0,0,72,144a2.35,2.35,0,0,0,1,.67,3.13,3.13,0,0,0,1.3.2,2.48,2.48,0,0,0,1.06-.3,2.53,2.53,0,0,0,.82-.7,2.64,2.64,0,0,0,.44-1,8.09,8.09,0,0,0,0-1.74c-.13-2.23-.27-4.46-.4-6.69l1.17-.07c.12,2.24.25,4.47.37,6.7A8,8,0,0,1,77.63,143.45ZM91.88,145c-.38-2.65-.76-5.29-1.16-7.94q-2,4-3.93,8h-.28q-2.12-4-4.33-7.88-.42,4-.8,8.05l-1.09,0q.55-5.58,1.16-11.16h.19q2.56,4.46,5,9,2.17-4.6,4.51-9.17h.19q.87,5.55,1.67,11.1Zm19.38-4.92a5.82,5.82,0,0,1-.63,2.31,6.31,6.31,0,0,1-1.61,1.9c.52.72,1,1.45,1.54,2.18l-1.38-.09-1.06-1.5a6.26,6.26,0,0,1-7.3-1.17,5.55,5.55,0,0,1-1.63-4.14,5.71,5.71,0,0,1,.88-2.95,5.65,5.65,0,0,1,2.29-2.07,6.15,6.15,0,0,1,3.13-.64,6,6,0,0,1,4.28,1.91A5.48,5.48,0,0,1,111.26,140.11Zm9.81,2a7.84,7.84,0,0,1-.54,2.36,3.3,3.3,0,0,1-1.34,1.47,3.43,3.43,0,0,1-2.19.48,4.16,4.16,0,0,1-2.27-.84,3.17,3.17,0,0,1-1.17-1.8,9.32,9.32,0,0,1,0-2.35c.18-2.23.35-4.45.52-6.68l1.17.09c-.18,2.23-.37,4.45-.55,6.68a13,13,0,0,0-.07,1.49,2.41,2.41,0,0,0,.3,1.12,2.2,2.2,0,0,0,.88.82,3,3,0,0,0,1.25.41,2.68,2.68,0,0,0,1.09-.13,2.47,2.47,0,0,0,.92-.57,2.64,2.64,0,0,0,.61-1,8.53,8.53,0,0,0,.29-1.71c.22-2.23.45-4.45.67-6.68l1.17.12C121.54,137.66,121.31,139.88,121.07,142.1Zm10.86,5.8c-.41-1.29-.82-2.58-1.25-3.87-1.62-.23-3.24-.44-4.87-.64-.73,1.14-1.46,2.28-2.18,3.42l-1.25-.14c2.17-3.49,4.42-6.94,6.73-10.38l.29,0q2,5.86,3.73,11.75Zm8.3,1.35c-1.79-.32-3.59-.62-5.38-.9q.87-5.49,1.76-11l1.15.18c-.54,3.3-1.09,6.6-1.63,9.91,1.43.23,2.86.47,4.29.73C140.36,148.55,140.29,148.9,140.23,149.25Zm2.7.5-1.11-.21q1-5.46,2.05-10.92l1.15.22Q144,144.3,142.93,149.75Zm9.64-8.26L150,141l-2.07,9.8-1.12-.23q1-4.91,2-9.81c-.85-.18-1.7-.35-2.56-.51.07-.36.14-.72.22-1.07q3.15.62,6.28,1.3C152.73,140.79,152.65,141.14,152.57,141.49Zm4.42,5.86q-.62,2.58-1.25,5.16l-1.08-.26,1.23-5.17q-1.12-3.24-2.34-6.48l1.32.29q.94,2.56,1.84,5.14,1.95-1.89,3.95-3.76l1.31.34Q159.45,145,157,147.35Z" transform="translate(-0.7 -0.76)"/><path class="cls-1" d="M29.42,143.12a1.78,1.78,0,0,0-1-.45,5,5,0,0,0-1.7.21l-2,.49c.31,1.22.61,2.44.92,3.66l1.9-.45a5.62,5.62,0,0,0,1.63-.6,1.77,1.77,0,0,0,.69-.85,1.85,1.85,0,0,0-.47-2Z" transform="translate(-0.7 -0.76)"/><polygon class="cls-1" points="91.95 24.06 99.36 24.06 101.5 16.81 96.08 19.94 92.53 14.74 93.48 13.79 91.95 12.26 90.42 13.79 91.38 14.74 87.82 19.94 82.41 16.81 84.55 24.06 91.95 24.06"/><path class="cls-1" d="M67.56,23.65a2.3,2.3,0,0,0-3.1-1.37,2.21,2.21,0,0,0-1,.78,2.23,2.23,0,0,1-2,.89,2.17,2.17,0,0,0-1.23.25,2.28,2.28,0,0,0-1,3.22,2.35,2.35,0,0,0,3,.9,2.42,2.42,0,0,0,.93-.8,2,2,0,0,1,1.87-.84,2.42,2.42,0,0,0,1.2-.2A2.32,2.32,0,0,0,67.56,23.65Zm-5.93,3.28A.75.75,0,1,1,61,25.58a.74.74,0,0,1,1,.32A.79.79,0,0,1,61.63,26.93Zm4-1.85a.76.76,0,1,1-.59-1.39.77.77,0,0,1,1,.42A.74.74,0,0,1,65.64,25.08Z" transform="translate(-0.7 -0.76)"/><path class="cls-1" d="M71.47,24.56a2.47,2.47,0,0,0,1-.66,2,2,0,0,1,.73-.48,2.06,2.06,0,0,1,.89,0,2.3,2.3,0,0,0,1.22,0A2.34,2.34,0,0,0,77,20.8,2.3,2.3,0,0,0,74.14,19a2.52,2.52,0,0,0-1.1.64,2.18,2.18,0,0,1-.77.5,2.38,2.38,0,0,1-.92,0,2.37,2.37,0,0,0-1.26.07,2.29,2.29,0,0,0-1.46,3A2.36,2.36,0,0,0,71.47,24.56Zm3-4.08a.76.76,0,0,1,.94.55.78.78,0,0,1-.55.92.75.75,0,0,1-.93-.52A.78.78,0,0,1,74.52,20.48Zm-4,1.17a.75.75,0,0,1,1,.48.78.78,0,0,1-.5,1,.76.76,0,0,1-1-.47A.77.77,0,0,1,70.57,21.65Z" transform="translate(-0.7 -0.76)"/><path class="cls-1" d="M46.26,39.37a2.59,2.59,0,0,0,.67-1A2,2,0,0,1,48.48,37a2.61,2.61,0,0,0,1.11-.51A2.34,2.34,0,0,0,50,33.4,2.29,2.29,0,0,0,46.66,33a2.2,2.2,0,0,0-.74,1,2.19,2.19,0,0,1-1.62,1.4,2.15,2.15,0,0,0-1.12.59,2.29,2.29,0,0,0,0,3.38A2.35,2.35,0,0,0,46.26,39.37Zm1.37-5.22a.78.78,0,0,1,1.08.11.75.75,0,0,1-.13,1.06.77.77,0,0,1-1.07-.1A.75.75,0,0,1,47.63,34.15Zm-3.4,3a.73.73,0,0,1,1.07,0,.78.78,0,0,1,0,1.08.77.77,0,0,1-1.07,0A.75.75,0,0,1,44.23,37.11Z" transform="translate(-0.7 -0.76)"/><path class="cls-1" d="M54,33.17a2.54,2.54,0,0,0,.81-.92,2,2,0,0,1,.57-.67,1.94,1.94,0,0,1,.85-.24A2.39,2.39,0,0,0,57.41,31a2.33,2.33,0,0,0,.86-3A2.29,2.29,0,0,0,55,27.08a2.32,2.32,0,0,0-.87.92,2.13,2.13,0,0,1-.6.7,2.23,2.23,0,0,1-.88.25,2.15,2.15,0,0,0-1.19.42,2.29,2.29,0,0,0-.53,3.34A2.34,2.34,0,0,0,54,33.17Zm1.78-4.78a.78.78,0,0,1,1.06.27.75.75,0,0,1-.28,1,.76.76,0,0,1-1-.24A.77.77,0,0,1,55.8,28.39Zm-3.46,2.24a.75.75,0,0,1,1.06.19.78.78,0,0,1-.21,1.06.75.75,0,0,1-1-.18A.77.77,0,0,1,52.34,30.63Z" transform="translate(-0.7 -0.76)"/><path class="cls-1" d="M32.58,48.21a2.14,2.14,0,0,0-.43,1.19A2.19,2.19,0,0,1,31,51.21a2.2,2.2,0,0,0-.92.87A2.3,2.3,0,0,0,31,55.34a2.35,2.35,0,0,0,3-.87,2.48,2.48,0,0,0,.35-1.16,2,2,0,0,1,1.11-1.73,2.51,2.51,0,0,0,.92-.8,2.35,2.35,0,0,0-.46-3.1A2.28,2.28,0,0,0,32.58,48.21Zm.11,5.44a.75.75,0,0,1-1,.27.76.76,0,0,1-.26-1.05.74.74,0,0,1,1-.27A.77.77,0,0,1,32.69,53.65Zm2.39-3.71a.78.78,0,0,1-1.06.2.74.74,0,0,1-.18-1.06.77.77,0,0,1,1.07-.2A.75.75,0,0,1,35.08,49.94Z" transform="translate(-0.7 -0.76)"/><path class="cls-1" d="M36.61,46.77a2.34,2.34,0,0,0,3.09-.43,2.43,2.43,0,0,0,.52-1.1,2.17,2.17,0,0,1,.35-.81,1.92,1.92,0,0,1,.76-.46,2.62,2.62,0,0,0,1-.68,2.36,2.36,0,0,0,0-3.12,2.35,2.35,0,0,0-4,1.18,2.12,2.12,0,0,1-.37.84,2.25,2.25,0,0,1-.78.49,2.23,2.23,0,0,0-1,.73A2.3,2.3,0,0,0,36.61,46.77Zm3.46-5.51a.77.77,0,0,1,1.09,0,.76.76,0,0,1,0,1.07.78.78,0,0,1-1.07.05A.75.75,0,0,1,40.07,41.26Zm-2.7,3.12a.76.76,0,0,1,1.08-.11.78.78,0,0,1,.09,1.07.75.75,0,0,1-1.06.12A.76.76,0,0,1,37.37,44.38Z" transform="translate(-0.7 -0.76)"/><path class="cls-1" d="M23.85,74.1a2.33,2.33,0,0,0,2.62-1.69,2.26,2.26,0,0,0,0-1.21,2.07,2.07,0,0,1,.56-2,2.31,2.31,0,0,0,.67-1,2.37,2.37,0,0,0-1.33-2.84,2.38,2.38,0,0,0-3.12,2.71,2.18,2.18,0,0,1-.59,2.06A2.59,2.59,0,0,0,22,71.22,2.32,2.32,0,0,0,23.85,74.1Zm1-6.81a.76.76,0,1,1,1.44.47.77.77,0,0,1-1,.49A.75.75,0,0,1,24.81,67.29Zm-1.28,4.32a.78.78,0,0,1,.94-.55A.74.74,0,0,1,25,72a.76.76,0,0,1-.91.56A.77.77,0,0,1,23.53,71.61Z" transform="translate(-0.7 -0.76)"/><path class="cls-1" d="M26.82,64.29A2.32,2.32,0,0,0,29.65,63a2.3,2.3,0,0,0,.2-1.2,1.44,1.44,0,0,1,.69-1.53,2.79,2.79,0,0,0,.8-.93,2.35,2.35,0,0,0-.9-3,2.29,2.29,0,0,0-3.23,1A2.2,2.2,0,0,0,27,58.59a2,2,0,0,1-.12.91,2.1,2.1,0,0,1-.6.69,2.5,2.5,0,0,0-.79,1A2.31,2.31,0,0,0,26.82,64.29ZM28.59,58a.77.77,0,0,1,1-.35.76.76,0,0,1,.32,1,.78.78,0,0,1-1,.35A.74.74,0,0,1,28.59,58Zm-1.73,3.75a.78.78,0,0,1,1-.41.76.76,0,0,1,.38,1,.74.74,0,0,1-1,.42A.78.78,0,0,1,26.86,61.78Z" transform="translate(-0.7 -0.76)"/><path class="cls-1" d="M19.78,91.86a2.26,2.26,0,0,0,2.51,2.25A2.33,2.33,0,0,0,24,90.58a1.85,1.85,0,0,1,0-2,2.32,2.32,0,0,0,.34-1.17A2.4,2.4,0,0,0,22.29,85a2.25,2.25,0,0,0-2.51,2.25,2.42,2.42,0,0,0,.28,1.23,2.41,2.41,0,0,1,0,2.14A2.4,2.4,0,0,0,19.78,91.86Zm2.3-5.3a.77.77,0,1,1-.77.74A.74.74,0,0,1,22.08,86.56Zm0,4.46a.76.76,0,0,1,.77.74.78.78,0,0,1-.74.8.77.77,0,0,1,0-1.54Z" transform="translate(-0.7 -0.76)"/><path class="cls-1" d="M22.38,83.86a2.37,2.37,0,0,0,2.37-2,2.24,2.24,0,0,0-.16-1.21,2.05,2.05,0,0,1-.16-.88,1.87,1.87,0,0,1,.38-.79,2.31,2.31,0,0,0,.51-1.12,2.37,2.37,0,0,0-1.73-2.61A2.26,2.26,0,0,0,20.8,77.1a2.38,2.38,0,0,0,.1,1.25,2.37,2.37,0,0,1,.14.91,2,2,0,0,1-.37.84,2.44,2.44,0,0,0-.47,1.17A2.28,2.28,0,0,0,22.38,83.86Zm.81-7.13a.77.77,0,0,1-.27,1.51.75.75,0,0,1-.61-.88A.76.76,0,0,1,23.19,76.73Zm-.62,4a.75.75,0,0,1,.66.84.79.79,0,0,1-.85.68.73.73,0,0,1-.65-.85A.75.75,0,0,1,22.57,80.77Z" transform="translate(-0.7 -0.76)"/><path class="cls-1" d="M26.39,113.76a2.37,2.37,0,0,0,1.33-2.84,2.34,2.34,0,0,0-.67-1,2.05,2.05,0,0,1-.56-2,2.3,2.3,0,0,0,0-1.22A2.29,2.29,0,1,0,22,107.89a2.59,2.59,0,0,0,.64,1.09,2.21,2.21,0,0,1,.59,2.07,2.38,2.38,0,0,0,3.12,2.71Zm-1.92-5.7a.78.78,0,0,1-.94-.55.77.77,0,0,1,.55-.94.77.77,0,0,1,.39,1.49Zm.34,3.77a.76.76,0,0,1,.48-1,.79.79,0,0,1,1,.5.77.77,0,0,1-.47,1A.78.78,0,0,1,24.81,111.83Z" transform="translate(-0.7 -0.76)"/><path class="cls-1" d="M23.59,103.9a2.38,2.38,0,0,0,1.73-2.62,2.32,2.32,0,0,0-.51-1.11,1.85,1.85,0,0,1-.38-.8,2,2,0,0,1,.16-.87,2.25,2.25,0,0,0,.16-1.21,2.36,2.36,0,0,0-2.37-2,2.27,2.27,0,0,0-2.18,2.58A2.47,2.47,0,0,0,20.67,99a2,2,0,0,1,.37.83,2.35,2.35,0,0,1-.14.91,2.42,2.42,0,0,0-.1,1.26A2.27,2.27,0,0,0,23.59,103.9Zm-1.86-6.23a.73.73,0,0,1,.65-.85.8.8,0,0,1,.85.68.75.75,0,1,1-1.5.17Zm.58,4.09a.76.76,0,0,1,.61-.89.77.77,0,0,1,.88.63.76.76,0,1,1-1.49.26Z" transform="translate(-0.7 -0.76)"/><path class="cls-1" d="M30.54,118.85a2.08,2.08,0,0,1-.59-.66,2.17,2.17,0,0,1-.1-.88,2.3,2.3,0,0,0-.2-1.2,2.33,2.33,0,0,0-2.83-1.28,2.3,2.3,0,0,0-1.37,3.1,2.44,2.44,0,0,0,.79,1,2.32,2.32,0,0,1,.6.69,2,2,0,0,1,.12.91,2.17,2.17,0,0,0,.25,1.24,2.3,2.3,0,0,0,3.23,1,2.36,2.36,0,0,0,.9-3A2.6,2.6,0,0,0,30.54,118.85Zm-2.67-1.11a.77.77,0,1,1-.6-1.41.77.77,0,0,1,.6,1.41Zm1.75,3.7a.77.77,0,0,1-1-.36.74.74,0,0,1,.33-1,.78.78,0,0,1,1,.36A.76.76,0,0,1,29.62,121.44Z" transform="translate(-0.7 -0.76)"/><path class="cls-1" d="M161.46,105a2.33,2.33,0,0,0-2.62,1.68,2.3,2.3,0,0,0,0,1.22,2,2,0,0,1-.56,2,2.34,2.34,0,0,0-.67,1,2.38,2.38,0,0,0,1.33,2.84,2.29,2.29,0,0,0,3-1.46,2.33,2.33,0,0,0,.08-1.25,2.23,2.23,0,0,1,.59-2.07,2.49,2.49,0,0,0,.64-1.09A2.31,2.31,0,0,0,161.46,105Zm-1,6.81a.78.78,0,0,1-1,.49.77.77,0,0,1-.47-1,.79.79,0,0,1,1-.5A.76.76,0,0,1,160.5,111.83Zm1.28-4.32a.78.78,0,0,1-.94.55.77.77,0,0,1,.39-1.49A.77.77,0,0,1,161.78,107.51Z" transform="translate(-0.7 -0.76)"/><path class="cls-1" d="M158.5,114.83a2.34,2.34,0,0,0-2.84,1.28,2.3,2.3,0,0,0-.2,1.2,2,2,0,0,1-.1.88,2.08,2.08,0,0,1-.59.66,2.6,2.6,0,0,0-.8.93,2.35,2.35,0,0,0,.91,3,2.29,2.29,0,0,0,3.22-1,2.17,2.17,0,0,0,.25-1.24,2.16,2.16,0,0,1,.12-.91,2.32,2.32,0,0,1,.6-.69,2.54,2.54,0,0,0,.8-1A2.31,2.31,0,0,0,158.5,114.83Zm-1.78,6.25a.75.75,0,1,1-1.35-.66.78.78,0,0,1,1-.36A.74.74,0,0,1,156.72,121.08Zm1.73-3.74a.77.77,0,0,1-1,.4.77.77,0,0,1,.6-1.41A.77.77,0,0,1,158.45,117.34Z" transform="translate(-0.7 -0.76)"/><path class="cls-1" d="M165.54,87.26A2.26,2.26,0,0,0,163,85,2.38,2.38,0,0,0,161,87.36a2.14,2.14,0,0,0,.34,1.17,1.9,1.9,0,0,1,0,2,2.2,2.2,0,0,0-.34,1.18A2.39,2.39,0,0,0,163,94.11a2.27,2.27,0,0,0,2.52-2.25,2.51,2.51,0,0,0-.29-1.23,2.41,2.41,0,0,1,0-2.14A2.54,2.54,0,0,0,165.54,87.26Zm-2.31,5.3a.78.78,0,0,1-.74-.8.76.76,0,1,1,.74.8Zm0-4.46a.77.77,0,0,1,0-1.54.74.74,0,0,1,.77.74A.77.77,0,0,1,163.27,88.1Z" transform="translate(-0.7 -0.76)"/><path class="cls-1" d="M162.93,95.26a2.35,2.35,0,0,0-2.36,2,2.25,2.25,0,0,0,.15,1.21,2,2,0,0,1,.16.87,1.75,1.75,0,0,1-.38.8,2.32,2.32,0,0,0-.51,1.11,2.38,2.38,0,0,0,1.73,2.62,2.26,2.26,0,0,0,2.79-1.88,2.42,2.42,0,0,0-.1-1.26,2.35,2.35,0,0,1-.14-.91,2.14,2.14,0,0,1,.37-.83,2.38,2.38,0,0,0,.47-1.18A2.26,2.26,0,0,0,162.93,95.26Zm-.81,7.12a.76.76,0,0,1-.61-.88.77.77,0,0,1,.88-.63.77.77,0,0,1-.27,1.51Zm.62-4a.75.75,0,0,1-.65-.85.78.78,0,0,1,.84-.68.75.75,0,0,1,.66.85A.78.78,0,0,1,162.74,98.35Z" transform="translate(-0.7 -0.76)"/><path class="cls-1" d="M158.92,65.36a2.38,2.38,0,0,0-1.33,2.84,2.31,2.31,0,0,0,.67,1,2,2,0,0,1,.56,2,2.26,2.26,0,0,0,0,1.21,2.29,2.29,0,1,0,4.43-1.19,2.49,2.49,0,0,0-.64-1.09,2.21,2.21,0,0,1-.59-2.06,2.37,2.37,0,0,0-.08-1.26A2.27,2.27,0,0,0,158.92,65.36Zm1.92,5.7a.78.78,0,0,1,.94.55.77.77,0,0,1-.55.94.76.76,0,0,1-.91-.56A.74.74,0,0,1,160.84,71.06Zm-.34-3.77a.74.74,0,0,1-.47,1,.78.78,0,0,1-1-.49.76.76,0,1,1,1.44-.47Z" transform="translate(-0.7 -0.76)"/><path class="cls-1" d="M161.72,75.22A2.37,2.37,0,0,0,160,77.83,2.31,2.31,0,0,0,160.5,79a1.76,1.76,0,0,1,.38.79,2.05,2.05,0,0,1-.16.88,2.24,2.24,0,0,0-.15,1.21,2.36,2.36,0,0,0,2.36,2,2.28,2.28,0,0,0,2.18-2.59,2.34,2.34,0,0,0-.47-1.17,2.19,2.19,0,0,1-.37-.84,2.37,2.37,0,0,1,.14-.91,2.38,2.38,0,0,0,.1-1.25A2.26,2.26,0,0,0,161.72,75.22Zm1.87,6.22a.75.75,0,0,1-.66.85.78.78,0,0,1-.84-.68.75.75,0,0,1,.65-.84A.77.77,0,0,1,163.59,81.44ZM163,77.36a.75.75,0,0,1-.61.88.77.77,0,1,1,.61-.88Z" transform="translate(-0.7 -0.76)"/><path class="cls-1" d="M148.94,50.78a2.6,2.6,0,0,0,.92.8A2,2,0,0,1,151,53.31a2.48,2.48,0,0,0,.35,1.16,2.35,2.35,0,0,0,3,.87,2.3,2.3,0,0,0,.91-3.26,2.26,2.26,0,0,0-.91-.88,2.17,2.17,0,0,1-1.16-1.8,2.14,2.14,0,0,0-.43-1.19,2.28,2.28,0,0,0-3.33-.53A2.37,2.37,0,0,0,148.94,50.78Zm3.93,1.82a.74.74,0,0,1,1,.27.76.76,0,0,1-.26,1.05.75.75,0,0,1-1-.27A.78.78,0,0,1,152.87,52.6Zm-2.47-3.72a.77.77,0,0,1,1.07.2.74.74,0,0,1-.18,1.06.78.78,0,0,1-1.06-.2A.75.75,0,0,1,150.4,48.88Z" transform="translate(-0.7 -0.76)"/><path class="cls-1" d="M154,59.34a2.79,2.79,0,0,0,.8.93,2.16,2.16,0,0,1,.59.65,2,2,0,0,1,.1.88,2.3,2.3,0,0,0,.2,1.2,2.29,2.29,0,1,0,4.21-1.82,2.62,2.62,0,0,0-.8-1,2.1,2.1,0,0,1-.6-.69,2.16,2.16,0,0,1-.12-.91,2.2,2.2,0,0,0-.25-1.24,2.28,2.28,0,0,0-3.22-1A2.35,2.35,0,0,0,154,59.34Zm3.47,2a.77.77,0,0,1,.6,1.42.75.75,0,0,1-1-.42A.76.76,0,0,1,157.44,61.37Zm-1.74-3.69a.76.76,0,0,1,1,.35.74.74,0,0,1-.33,1,.78.78,0,0,1-1-.35A.75.75,0,0,1,155.7,57.68Z" transform="translate(-0.7 -0.76)"/><path class="cls-1" d="M135.73,36.49a2.57,2.57,0,0,0,1.1.51,2,2,0,0,1,1.56,1.35,2.56,2.56,0,0,0,.66,1,2.35,2.35,0,0,0,3.12,0,2.29,2.29,0,0,0,0-3.38,2.15,2.15,0,0,0-1.12-.59,2.21,2.21,0,0,1-1.62-1.4,2.2,2.2,0,0,0-.74-1,2.29,2.29,0,0,0-3.35.44A2.34,2.34,0,0,0,135.73,36.49Zm4.28.65a.74.74,0,0,1,1.08,0,.75.75,0,1,1-1.08,0Zm-3.41-2.88a.78.78,0,0,1,1.08-.11.75.75,0,0,1,.12,1.07.77.77,0,0,1-1.07.1A.75.75,0,0,1,136.6,34.26Z" transform="translate(-0.7 -0.76)"/><path class="cls-1" d="M143,43.29a2.48,2.48,0,0,0,1,.68,1.88,1.88,0,0,1,.75.46,2,2,0,0,1,.35.81,2.54,2.54,0,0,0,.52,1.1,2.34,2.34,0,0,0,3.09.43,2.3,2.3,0,0,0,.43-3.36,2.23,2.23,0,0,0-1-.73,2.25,2.25,0,0,1-.78-.49,2.12,2.12,0,0,1-.37-.84,2.35,2.35,0,0,0-4-1.18A2.34,2.34,0,0,0,143,43.29Zm3.9,1a.74.74,0,0,1,1.07.11.76.76,0,0,1-.11,1.08.75.75,0,0,1-1.06-.12A.77.77,0,0,1,146.87,44.27Zm-2.72-3.05a.77.77,0,0,1,1.09,0,.75.75,0,0,1,0,1.08.78.78,0,0,1-1.07-.05A.76.76,0,0,1,144.15,41.22Z" transform="translate(-0.7 -0.76)"/><path class="cls-1" d="M119,26.48a2.42,2.42,0,0,0,1.2.2,2,2,0,0,1,1.87.84,2.5,2.5,0,0,0,.93.8,2.35,2.35,0,0,0,3-.9,2.27,2.27,0,0,0-1-3.22,2.23,2.23,0,0,0-1.23-.26,2.21,2.21,0,0,1-2-.88,2.21,2.21,0,0,0-1-.78,2.3,2.3,0,0,0-3.1,1.37A2.33,2.33,0,0,0,119,26.48Zm4.29-.58a.74.74,0,0,1,1-.32.75.75,0,1,1-.67,1.35A.79.79,0,0,1,123.33,25.9Zm-4.08-1.79a.78.78,0,0,1,1-.42.76.76,0,1,1-.59,1.39A.74.74,0,0,1,119.25,24.11Z" transform="translate(-0.7 -0.76)"/><path class="cls-1" d="M127.9,31a2.39,2.39,0,0,0,1.16.36,1.49,1.49,0,0,1,1.42.91,2.54,2.54,0,0,0,.81.92,2.35,2.35,0,0,0,3.09-.46,2.3,2.3,0,0,0-.54-3.34,2.15,2.15,0,0,0-1.19-.42,2.23,2.23,0,0,1-.88-.25,2.13,2.13,0,0,1-.6-.7,2.26,2.26,0,0,0-.87-.92A2.29,2.29,0,0,0,127,28,2.33,2.33,0,0,0,127.9,31Zm4-.16a.76.76,0,0,1,1.07-.19.77.77,0,0,1,.2,1.07.77.77,0,0,1-1.06.18A.78.78,0,0,1,131.91,30.82Zm-3.46-2.16a.78.78,0,0,1,1.06-.27.77.77,0,0,1,.26,1.06.77.77,0,0,1-1.32-.79Z" transform="translate(-0.7 -0.76)"/><path class="cls-1" d="M110,23.42a2.3,2.3,0,0,0,1.22,0,2.06,2.06,0,0,1,.89,0,2,2,0,0,1,.73.48,2.47,2.47,0,0,0,1,.66,2.36,2.36,0,0,0,2.84-1.32,2.29,2.29,0,0,0-1.46-3,2.36,2.36,0,0,0-1.26-.07,2.38,2.38,0,0,1-.92,0,2.18,2.18,0,0,1-.77-.5,2.49,2.49,0,0,0-1.09-.64,2.3,2.3,0,0,0-2.88,1.8A2.34,2.34,0,0,0,110,23.42Zm3.81-1.29a.76.76,0,0,1,1-.48.77.77,0,0,1,.5,1,.76.76,0,0,1-1,.47A.78.78,0,0,1,113.78,22.13ZM109.85,21a.76.76,0,0,1,.94-.55.79.79,0,0,1,.55.95.77.77,0,0,1-.94.52A.78.78,0,0,1,109.85,21Z" transform="translate(-0.7 -0.76)"/><path class="cls-1" d="M58.33,86.68a4.89,4.89,0,0,0-2-.68c-.66-.07-1.14-.11-1.43-.11a9.06,9.06,0,0,0,1.36-.36,6.7,6.7,0,0,0,1.86-.92,5.94,5.94,0,0,0,1.64-1.79A5.25,5.25,0,0,0,60.51,80V70.68A6.65,6.65,0,0,0,60,68a6.5,6.5,0,0,0-1.46-2.15,7.42,7.42,0,0,0-2.18-1.43,6.73,6.73,0,0,0-2.61-.53H37.36a.19.19,0,0,0-.21.21V114a.19.19,0,0,0,.21.21H54.08a6.42,6.42,0,0,0,4.78-2,6.61,6.61,0,0,0,1.93-4.82V91.75A6.16,6.16,0,0,0,60,88.43,5.22,5.22,0,0,0,58.33,86.68ZM45,70.6v-.07a.19.19,0,0,1,.22-.21h7.21c.15,0,.22.09.22.28v6.79a9.09,9.09,0,0,1-.43,3.18,4.27,4.27,0,0,1-1.07,1.68,2.62,2.62,0,0,1-1.32.68,7.91,7.91,0,0,1-1.18.1H45.22c-.14,0-.22-.09-.22-.28Zm7.93,36.73a.19.19,0,0,1-.21.21h-7.5a.19.19,0,0,1-.22-.21V89q0-.21.15-.21h3.78a3,3,0,0,1,2.4.93,5.67,5.67,0,0,1,1.18,2.06,9.35,9.35,0,0,1,.42,2.92Z" transform="translate(-0.7 -0.76)"/><path class="cls-1" d="M86.51,63.82H67.29c-.14,0-.21.09-.21.28V70c0,.19.07.29.21.29H73v37.29H67.29c-.14,0-.21.1-.21.29v6c0,.19.07.28.21.28H86.51c.15,0,.22-.09.22-.28v-6a.26.26,0,0,0-.29-.29H80.87V70.25h5.57a.26.26,0,0,0,.29-.29V64.1C86.73,63.91,86.66,63.82,86.51,63.82Z" transform="translate(-0.7 -0.76)"/><path class="cls-1" d="M114,86.43c-.69-.07-1.2-.11-1.54-.11a2.61,2.61,0,0,0,1.08-.46,4.41,4.41,0,0,0,1.12-1.18,7.05,7.05,0,0,0,.9-2,10.75,10.75,0,0,0,.36-3V64a.19.19,0,0,0-.21-.21h-7.07c-.15,0-.22.07-.22.21v13.5a11.13,11.13,0,0,1-.39,3.25,5.34,5.34,0,0,1-1,1.93,2.76,2.76,0,0,1-1.21.9,3.74,3.74,0,0,1-1.14.21h-3.07c-.2,0-.29-.07-.29-.21V64a.19.19,0,0,0-.21-.21H93.73c-.19,0-.29.07-.29.21V113.9c0,.19.1.28.29.28h7.36c.14,0,.21-.09.21-.28V89.82c0-.09.07-.19.21-.28h5.93a2.84,2.84,0,0,1,2.33.92,6.31,6.31,0,0,1,1.1,2.08,10.83,10.83,0,0,1,.36,2.93V113.9c0,.14.07.21.22.21h7.07a.19.19,0,0,0,.21-.21V92.25a6.1,6.1,0,0,0-.79-3.36,5.09,5.09,0,0,0-1.87-1.78A5.7,5.7,0,0,0,114,86.43Z" transform="translate(-0.7 -0.76)"/><path class="cls-1" d="M148,63.82H128.31c-.2,0-.29.09-.29.28v49.8c0,.14.09.21.29.21h19.07c.19,0,.29-.07.29-.21v-6.22c0-.14-.1-.21-.29-.21h-11.5V89h10.64c.19,0,.29-.07.29-.21V83.53c0-.19-.1-.28-.29-.28H135.88v-13H148c.14,0,.22-.1.22-.29V64.1C148.17,63.91,148.09,63.82,148,63.82Z" transform="translate(-0.7 -0.76)"/><path class="cls-1" d="M74,36.7a8.06,8.06,0,0,0-1,2.83,9.78,9.78,0,0,0-.17,1.23,1.1,1.1,0,0,0,.15.64.8.8,0,0,0,.56.28,8.62,8.62,0,0,0,1.37.08h2c.57,0,.85,0,.85-.15s-.65-.43-1.94-.6L75.37,41a1,1,0,0,1-.28-.07.16.16,0,0,1-.08-.16c0-.21.7-.54,2.1-1a38.69,38.69,0,0,1,4.94-1.19A28.4,28.4,0,0,1,87.19,38a24.58,24.58,0,0,1,3.47.22c-1.69,2.14-3.22,4.17-4.57,6.1S83.62,48,82.73,49.52a33.39,33.39,0,0,0-2,3.85,6.94,6.94,0,0,0-.64,2.46,1.41,1.41,0,0,0,.33,1,1,1,0,0,0,.8.37c.73,0,1.51-.73,2.34-2.18.1-.16.25-.41.44-.74s.34-.62.48-.85.27-.51.41-.82l-.55-.41q1.58-3.34,5.85-10.3c.25-.39.63-.93,1.14-1.61a17.7,17.7,0,0,0,1.07-1.55,2.35,2.35,0,0,0,.29-1.16.57.57,0,0,0,0-.18,1.52,1.52,0,0,0-.06-.2c0-.06-.05-.14-.08-.24L92,35.42a8.91,8.91,0,0,0-.37-1,1.63,1.63,0,0,0-.66-.59,5,5,0,0,0-1.64-.46,23.7,23.7,0,0,0-3-.16,40.16,40.16,0,0,0-6.6.69A13.55,13.55,0,0,0,76,35,4.8,4.8,0,0,0,74,36.7Z" transform="translate(-0.7 -0.76)"/><path class="cls-1" d="M95.23,50.53c.23-.28.52-.61.87-1a9.11,9.11,0,0,1,1.18-1.13,8.93,8.93,0,0,1,1.41-1,32.29,32.29,0,0,0-2.32,3.81,6.55,6.55,0,0,0-.81,2.85c0,1,.44,1.53,1.3,1.53a2.73,2.73,0,0,0,1.34-.48A14,14,0,0,0,100,53.73c.68-.6,1.47-1.37,2.38-2.3,0,.08,0,.15,0,.23a5.16,5.16,0,0,0,.86,3.14,2.8,2.8,0,0,0,2.35,1.14,5.63,5.63,0,0,0,3.34-1.2,20.88,20.88,0,0,0,3.52-3.46v-1c-.83.71-1.54,1.28-2.11,1.7a9.2,9.2,0,0,1-1.74,1,4.25,4.25,0,0,1-1.68.38,1.59,1.59,0,0,1-1.27-.55,2.22,2.22,0,0,1-.48-1.52v-.42a24.58,24.58,0,0,0,4-2,9,9,0,0,0,2.38-2.06,3.46,3.46,0,0,0,.78-2.08,1.28,1.28,0,0,0-.46-1.08,2,2,0,0,0-1.23-.35,5.68,5.68,0,0,0-2.23.54,10.39,10.39,0,0,0-2.51,1.63,12.44,12.44,0,0,0-2.66,3,6.33,6.33,0,0,0-.68,1.88v-.11c-1.83,1.43-3,2.15-3.54,2.15s-.74-.26-.74-.79a2.84,2.84,0,0,1,.38-1.27,11.65,11.65,0,0,1,1.09-1.67c.47-.63,1.1-1.42,1.9-2.37a.82.82,0,0,0,.16-.42,1.79,1.79,0,0,0-.43-1,1.2,1.2,0,0,0-.93-.59,3.52,3.52,0,0,0-1.66.81A25.42,25.42,0,0,0,96,47.52c-1.08,1-2.37,2.4-3.85,4v-2c.88-1,1.67-1.88,2.37-2.72S96,45.08,96.82,44s1.46-1.9,1.88-2.48,1.14-1.59,2.15-3,1.58-2.35,2-3a3.25,3.25,0,0,0,.57-1.37c0-.15-.12-.29-.36-.41a2.52,2.52,0,0,0-.94-.24c-.31,0-.92.44-1.82,1.39a46.29,46.29,0,0,0-3.44,4.19q-2.06,2.76-5,7.12a11.84,11.84,0,0,0-1.7,3.34,9.56,9.56,0,0,0-.31,2.31c0,2.12.43,3.19,1.29,3.19a1,1,0,0,0,.67-.39c.23-.25.68-.8,1.34-1.65S94.51,51.34,95.23,50.53ZM106.08,48a7.69,7.69,0,0,1,2.6-2.44,2.36,2.36,0,0,1,1-.39c.24,0,.35.13.35.39a2.64,2.64,0,0,1-.5,1.15,7.4,7.4,0,0,1-1.57,1.65,9.56,9.56,0,0,1-2.56,1.45A4.73,4.73,0,0,1,106.08,48Z" transform="translate(-0.7 -0.76)"/></svg>